<svg width="32" height="32" viewBox="0 0 32 32" fill="none" xmlns="http://www.w3.org/2000/svg">
<g clip-path="url(#clip0_802_3247)">
<path d="M0 9.34779C0.0034496 9.34836 0.00862399 9.35009 0.00977386 9.34894C0.121311 9.20176 0.280567 9.22073 0.437524 9.2213C1.16826 9.22303 1.899 9.22073 2.63032 9.2236C3.01552 9.22533 3.35416 9.35239 3.6284 9.62836C3.87792 9.8796 4.01303 10.1901 4.02051 10.5396C4.03315 11.1295 4.03373 11.7194 4.02166 12.3093C4.00728 12.9808 3.48869 13.5362 2.82292 13.6126C2.44519 13.6558 2.06631 13.623 1.68743 13.6316C1.55117 13.6345 1.55117 13.6322 1.55117 13.769C1.55059 14.2485 1.55002 14.7274 1.54944 15.2069C1.54887 15.4007 1.4632 15.4944 1.27003 15.4967C0.938291 15.5007 0.605979 15.4944 0.274243 15.4996C0.154082 15.5013 0.0833653 15.4237 0 15.3616C0 13.3568 0 11.3526 0 9.34779ZM1.55117 11.4244C1.55117 11.6119 1.55347 11.7999 1.55002 11.9873C1.54829 12.0603 1.57072 12.0885 1.64661 12.0868C1.83059 12.0822 2.01514 12.0862 2.19912 12.0845C2.38597 12.0833 2.47681 11.9936 2.47796 11.8074C2.47969 11.5596 2.47911 11.3118 2.47854 11.064C2.47796 10.8564 2.38885 10.765 2.17957 10.7615C2.00537 10.7587 1.83116 10.7644 1.65696 10.7592C1.57072 10.7569 1.54829 10.792 1.55002 10.8719C1.55404 11.0559 1.55117 11.2399 1.55117 11.4244Z" fill="#233265"/>
<path d="M15.9538 8C15.9251 8.01265 15.944 8.02702 15.9555 8.03392C16.0521 8.09084 16.0717 8.1811 16.0711 8.28402C16.0694 8.56573 16.0728 8.84745 16.0688 9.12859C16.0676 9.19759 16.0855 9.22173 16.1573 9.21943C16.3212 9.21426 16.4856 9.21656 16.6501 9.21828C16.8266 9.22058 16.9162 9.3097 16.9168 9.48563C16.918 9.82081 16.9185 10.156 16.9168 10.4912C16.9162 10.6648 16.8231 10.7551 16.6478 10.7562C16.4937 10.7574 16.339 10.7631 16.1849 10.7539C16.0901 10.7482 16.0768 10.7827 16.0768 10.8666C16.0791 12.308 16.0786 13.7493 16.078 15.1907C16.078 15.2309 16.0791 15.2712 16.0757 15.3114C16.0653 15.4304 15.9785 15.5201 15.8589 15.5213C15.4967 15.5247 15.1345 15.5247 14.7729 15.5213C14.6585 15.5201 14.574 15.4333 14.5607 15.3183C14.5556 15.2752 14.5567 15.2315 14.5567 15.1878C14.5573 13.7499 14.5561 12.3114 14.5607 10.8735C14.5607 10.7741 14.5337 10.7493 14.4383 10.7545C14.271 10.7626 14.1031 10.758 13.9352 10.7562C13.7702 10.7551 13.6776 10.666 13.6771 10.5033C13.6754 10.1577 13.6754 9.81276 13.6771 9.46723C13.6782 9.3097 13.7691 9.22116 13.9295 9.21828C14.0738 9.21541 14.2164 9.20046 14.3578 9.16884C14.6464 9.10387 14.8839 8.95784 15.0701 8.72901C15.1397 8.64335 15.2047 8.55366 15.2696 8.46397C15.3978 8.28632 15.5301 8.11326 15.7463 8.03277C15.7543 8.0299 15.7595 8.0184 15.7658 8.0115C15.7612 8.00747 15.7566 8.00345 15.752 8C15.8199 8 15.8865 8 15.9538 8Z" fill="#54C0EF"/>
<path d="M19.0402 9.53668C19.2679 9.35155 19.5105 9.22967 19.7876 9.1831C20.3125 9.09513 20.7782 9.22219 21.1738 9.58095C21.233 9.63442 21.26 9.62925 21.3158 9.57923C22.238 8.74615 23.7133 9.20782 23.9697 10.4083C23.9927 10.5164 24.0002 10.6273 24.0002 10.7377C24.0002 12.2262 24.0007 13.7141 24.0002 15.2026C24.0002 15.3895 23.9088 15.4809 23.723 15.4815C23.4114 15.4826 23.0992 15.4821 22.7876 15.4815C22.5329 15.4815 22.4565 15.4062 22.4565 15.1549C22.4553 13.8309 22.4542 12.5068 22.453 11.1827C22.453 11.1459 22.4536 11.1091 22.4519 11.0723C22.4415 10.8918 22.3185 10.7486 22.1408 10.7136C22.0448 10.6946 21.9477 10.6946 21.8511 10.7101C21.6613 10.7412 21.5406 10.8694 21.5199 11.0603C21.5147 11.1068 21.5153 11.154 21.5153 11.2005C21.5153 12.5246 21.5159 13.8487 21.5159 15.1727C21.5159 15.4177 21.4423 15.4924 21.1997 15.4924C20.8881 15.4924 20.5759 15.493 20.2643 15.4924C20.0613 15.4918 19.9768 15.4073 19.9768 15.2049C19.9756 13.8573 19.9745 12.5097 19.9733 11.1626C19.9733 10.9286 19.8813 10.7826 19.691 10.7291C19.5669 10.694 19.4375 10.6952 19.3133 10.7279C19.1466 10.7722 19.0414 10.9136 19.0339 11.0919C19.0304 11.1752 19.0327 11.2592 19.0327 11.3431C19.0327 12.6269 19.0327 13.9108 19.0327 15.1946C19.0327 15.3958 18.9488 15.4803 18.7459 15.4803C18.4239 15.4809 18.1019 15.4809 17.78 15.4803C17.5833 15.4798 17.4965 15.3952 17.4965 15.1992C17.496 13.2916 17.496 11.3845 17.4965 9.47689C17.4965 9.28486 17.5805 9.20265 17.7742 9.20207C18.0795 9.20092 18.3842 9.2015 18.6895 9.20207C18.9655 9.20322 19.0178 9.25037 19.0402 9.53668Z" fill="#54C0EF"/>
<path d="M8.46919 12.7977C8.46919 13.475 8.46976 14.1517 8.46919 14.829C8.46919 15.2078 8.22024 15.4643 7.84251 15.4654C7.14167 15.4677 6.44082 15.4723 5.74056 15.4602C5.17655 15.4505 4.69763 15.0952 4.5033 14.5697C4.43776 14.392 4.40614 14.2075 4.40614 14.0183C4.40499 13.5929 4.40499 13.1668 4.40614 12.7414C4.40844 12.0089 4.91783 11.4162 5.64224 11.2983C5.95903 11.2466 6.27754 11.2655 6.59548 11.2627C6.8266 11.2604 6.90249 11.1925 6.90307 10.9804C6.90364 10.7607 6.81683 10.6785 6.58628 10.6785C6.16716 10.6785 5.74803 10.6791 5.3289 10.6785C5.11273 10.6785 5.02994 10.5957 5.02994 10.3824C5.02994 10.084 5.02936 9.78566 5.02994 9.48727C5.03051 9.31479 5.11675 9.22625 5.28923 9.22625C5.83254 9.22567 6.37528 9.2228 6.91859 9.22912C7.17156 9.232 7.41878 9.28259 7.65221 9.3832C8.15355 9.59938 8.38467 10.0047 8.45079 10.5267C8.47206 10.6935 8.46976 10.8608 8.46976 11.0287C8.46976 11.618 8.46919 12.2078 8.46919 12.7977ZM6.92032 13.3945C6.92032 13.2571 6.92147 13.1197 6.92032 12.9829C6.91859 12.8023 6.82718 12.708 6.64952 12.7057C6.51212 12.704 6.37471 12.704 6.23787 12.7057C6.06367 12.708 5.97455 12.7989 5.97398 12.9754C5.97283 13.2565 5.97283 13.5377 5.97398 13.8188C5.97455 13.9827 6.06597 14.0827 6.23097 14.089C6.37471 14.0948 6.51901 14.0948 6.66275 14.089C6.82545 14.0827 6.91859 13.9798 6.92032 13.8159C6.92147 13.6757 6.92032 13.5354 6.92032 13.3945Z" fill="#233265"/>
<path d="M13.074 11.7203C13.074 12.4372 13.0757 13.1547 13.0734 13.8717C13.0722 14.1948 13.0142 14.5052 12.8394 14.7847C12.5445 15.2561 12.1035 15.4821 11.5613 15.497C10.9686 15.5137 10.3747 15.5022 9.78133 15.501C9.59965 15.5005 9.51341 15.4102 9.51283 15.2262C9.51168 14.9111 9.51226 14.5961 9.51226 14.281C9.51226 14.0269 9.5847 13.9556 9.844 13.955C10.3166 13.9545 10.7892 13.9527 11.2618 13.9533C11.367 13.9533 11.4538 13.9205 11.5084 13.8274C11.609 13.6561 11.4929 13.4583 11.2842 13.4531C11.0364 13.4468 10.788 13.4577 10.5402 13.4479C10.032 13.4278 9.6123 13.2289 9.31218 12.8086C9.12993 12.5528 9.03909 12.2613 9.03621 11.9502C9.02932 11.1258 9.03334 10.3013 9.03391 9.47688C9.03391 9.3113 9.1236 9.22218 9.28918 9.22161C9.62437 9.21988 9.95956 9.22046 10.2947 9.22103C10.4908 9.22161 10.577 9.30497 10.5782 9.50275C10.5811 9.86783 10.5799 10.2335 10.5799 10.5986C10.5805 10.9407 10.5799 11.2822 10.5811 11.6243C10.5816 11.8111 10.6719 11.9019 10.8576 11.9042C10.9881 11.906 11.1192 11.9054 11.2497 11.9042C11.4348 11.9025 11.5274 11.8105 11.5274 11.6243C11.5285 10.924 11.528 10.2231 11.528 9.52287C11.528 9.29635 11.6027 9.22103 11.8281 9.22103C12.1161 9.22103 12.4047 9.22103 12.6928 9.22103C13.0216 9.22103 13.0734 9.2722 13.0734 9.59762C13.074 10.3059 13.074 11.0131 13.074 11.7203Z" fill="#233265"/>
</g>
<defs>
<clipPath id="clip0_802_3247">
<rect width="24" height="7.52415" fill="white" transform="translate(0 8)"/>
</clipPath>
</defs>
</svg>
