<svg width="32" height="32" viewBox="0 0 32 32" fill="none" xmlns="http://www.w3.org/2000/svg">
<path d="M6.66667 4C5.18667 4 4 5.2 4 6.66667V25.3333C4 26.0406 4.28095 26.7189 4.78105 27.219C5.28115 27.719 5.95942 28 6.66667 28H25.3333C26.0406 28 26.7189 27.719 27.219 27.219C27.719 26.7189 28 26.0406 28 25.3333V22.2933C28.7867 21.8267 29.3333 20.9867 29.3333 20V12C29.3333 11.0133 28.7867 10.1733 28 9.70667V6.66667C28 5.95942 27.719 5.28115 27.219 4.78105C26.7189 4.28095 26.0406 4 25.3333 4H6.66667ZM6.66667 6.66667H25.3333V9.33333H17.3333C16.6261 9.33333 15.9478 9.61428 15.4477 10.1144C14.9476 10.6145 14.6667 11.2928 14.6667 12V20C14.6667 20.7072 14.9476 21.3855 15.4477 21.8856C15.9478 22.3857 16.6261 22.6667 17.3333 22.6667H25.3333V25.3333H6.66667V6.66667ZM17.3333 12H26.6667V20H17.3333V12ZM21.3333 14C20.8029 14 20.2942 14.2107 19.9191 14.5858C19.544 14.9609 19.3333 15.4696 19.3333 16C19.3333 16.5304 19.544 17.0391 19.9191 17.4142C20.2942 17.7893 20.8029 18 21.3333 18C21.8638 18 22.3725 17.7893 22.7475 17.4142C23.1226 17.0391 23.3333 16.5304 23.3333 16C23.3333 15.4696 23.1226 14.9609 22.7475 14.5858C22.3725 14.2107 21.8638 14 21.3333 14Z" fill="black"/>
</svg>
