<svg width="32" height="32" viewBox="0 0 32 32" fill="none" xmlns="http://www.w3.org/2000/svg">
<g clip-path="url(#clip0_802_3237)">
<path d="M11.7457 18.1489C8.31983 18.126 4.98549 17.1298 1.96883 15.0972C1.33212 14.6691 0.729054 14.1926 0.155606 13.6824C0.0411861 13.5801 -0.0665037 13.4563 0.0506089 13.2988C0.163683 13.1467 0.307718 13.2315 0.427523 13.2988C1.24327 13.7524 2.07248 14.1751 2.93535 14.5332C4.53319 15.1982 6.1795 15.6881 7.88369 16.0018C9.24462 16.2522 10.6136 16.3962 11.9934 16.407C14.2764 16.4258 16.5177 16.1068 18.7119 15.4701C19.5451 15.2291 20.3622 14.9464 21.1632 14.6112C21.2157 14.5884 21.2709 14.5682 21.3274 14.5574C21.532 14.5157 21.7339 14.5049 21.843 14.7284C21.9574 14.9612 21.8066 15.0999 21.637 15.221C20.3609 16.1431 18.9515 16.792 17.4546 17.2698C15.6643 17.8433 13.8322 18.1421 11.7457 18.1489Z" fill="#FC9B08"/>
<path d="M5.41968 10.219C5.36315 10.3469 5.38738 10.4546 5.38603 10.5596C5.38334 11.2447 5.3793 11.9299 5.38872 12.6164C5.39142 12.8507 5.2945 12.9516 5.06566 12.9435C4.91758 12.9382 4.76816 12.9382 4.62009 12.9435C4.39529 12.9516 4.27548 12.8601 4.29029 12.6218C4.29433 12.5559 4.29029 12.4899 4.29029 12.4239C4.29029 10.145 4.29029 7.86463 4.29029 5.58564C4.29029 5.20335 4.32798 5.167 4.71836 5.167C4.79239 5.167 4.86643 5.167 4.94181 5.16835C5.12354 5.17238 5.22988 5.25046 5.25815 5.4443C5.29719 5.71756 5.30526 5.71756 5.52334 5.56141C5.98371 5.23296 6.48851 5.02431 7.06061 5.01354C8.09443 4.99335 8.84018 5.48065 9.19017 6.45793C9.53343 7.41502 9.53612 8.39231 9.15921 9.33998C8.57769 10.8086 6.9058 11.2811 5.61353 10.3657C5.55564 10.3226 5.49776 10.2769 5.41968 10.219ZM8.31788 7.91713C8.29904 7.62367 8.295 7.31945 8.225 7.01926C8.08097 6.40274 7.66636 5.97333 7.13734 5.91141C6.56793 5.8441 6.04159 5.9639 5.5543 6.26813C5.42642 6.34755 5.38065 6.43774 5.38199 6.5885C5.38872 7.33022 5.38469 8.07328 5.38469 8.81634C5.38469 9.49478 5.4493 9.58497 6.10217 9.80977C6.19505 9.84208 6.29063 9.87573 6.38755 9.89189C7.19791 10.0265 7.89924 9.84343 8.18731 8.93076C8.28962 8.6023 8.29904 8.26577 8.31788 7.91713Z" fill="#3A434D"/>
<path d="M14.6284 8.44051C14.6284 9.15261 14.6298 9.73817 14.6284 10.3237C14.6271 10.6535 14.5894 10.6885 14.2542 10.6912C14.1721 10.6926 14.0886 10.6885 14.0065 10.6926C13.81 10.7006 13.7009 10.6253 13.6767 10.4153C13.6457 10.1474 13.635 10.1501 13.3994 10.3116C12.7667 10.7451 12.0748 10.951 11.3156 10.7693C10.4904 10.5714 10.0435 9.90105 10.1297 9.05165C10.2185 8.18475 10.8875 7.56553 11.8069 7.49553C12.3373 7.45515 12.8623 7.47938 13.3792 7.60861C13.5246 7.64495 13.5986 7.62476 13.5932 7.45515C13.5865 7.18323 13.6 6.91132 13.5609 6.6394C13.4963 6.19249 13.2715 5.96365 12.8233 5.90711C12.1906 5.82904 11.5727 5.91653 10.9629 6.08076C10.8754 6.10364 10.7879 6.12922 10.7018 6.1548C10.6291 6.17633 10.5672 6.15345 10.5254 6.09691C10.4029 5.93538 10.5147 5.4252 10.7004 5.3552C11.64 5.00117 12.6025 4.87329 13.5838 5.14521C14.2138 5.3202 14.5207 5.78192 14.5907 6.41325C14.6701 7.12939 14.6069 7.84956 14.6284 8.44051ZM13.5919 9.0005C13.5919 8.32071 13.5919 8.32071 12.9848 8.25071C12.5729 8.20359 12.1623 8.17398 11.7625 8.32205C11.3614 8.46878 11.1541 8.83358 11.2079 9.28722C11.2591 9.71529 11.5094 9.96028 11.955 10.0034C12.3333 10.0397 12.6846 9.94009 13.0319 9.78933C13.4155 9.62241 13.7359 9.43529 13.5919 9.0005Z" fill="#3A434D"/>
<path d="M15.9105 5.16674C15.9603 5.16674 16.0101 5.16674 16.0586 5.16674C16.4355 5.16944 16.4745 5.19367 16.601 5.54231C16.9201 6.41729 17.2364 7.29362 17.5528 8.1686C17.7022 8.57916 17.8476 8.99107 18.001 9.4003C18.0212 9.45414 18.0104 9.55241 18.0979 9.54972C18.1787 9.54568 18.176 9.45414 18.1975 9.39626C18.5139 8.49436 18.8289 7.59111 19.1439 6.68921C19.2852 6.28403 19.4306 5.88153 19.5652 5.47501C19.6379 5.25559 19.7792 5.15463 20.0094 5.16674C20.1494 5.17347 20.2908 5.16674 20.4308 5.16809C20.7054 5.17213 20.7565 5.23674 20.6583 5.50193C20.4819 5.97307 20.2921 6.43883 20.1077 6.90593C19.4669 8.5307 18.8248 10.1555 18.1827 11.7802C18.1033 11.9808 18.001 12.1693 17.8852 12.3496C17.4154 13.0846 16.6805 13.1708 15.9186 12.9877C15.7045 12.9366 15.582 12.421 15.7247 12.242C15.7584 12.1989 15.8041 12.1827 15.8553 12.1827C15.9132 12.1841 15.9711 12.1908 16.0276 12.1948C16.7828 12.2595 17.0318 12.0791 17.3428 11.3926C17.5474 10.943 17.5191 10.558 17.3266 10.1097C16.698 8.63974 16.1111 7.15227 15.5093 5.67154C15.3142 5.1829 15.3276 5.16674 15.9105 5.16674Z" fill="#3A434D"/>
<path d="M21.5152 13.7053C20.8704 13.708 20.3279 13.7538 19.7895 13.8426C19.6791 13.8615 19.5647 13.8655 19.5108 13.743C19.461 13.6286 19.5472 13.5546 19.6239 13.4926C19.8716 13.2934 20.1556 13.1588 20.4518 13.0551C21.4425 12.7105 22.4535 12.6419 23.4752 12.8788C23.9328 12.9851 24.0136 13.1103 23.9961 13.5747C23.9611 14.5022 23.6771 15.3557 23.2046 16.1485C23 16.4918 22.7496 16.796 22.4467 17.0572C22.3565 17.1352 22.2556 17.216 22.1371 17.1447C21.9971 17.0612 22.0833 16.9333 22.121 16.8337C22.3592 16.1997 22.6083 15.571 22.7725 14.9128C22.825 14.7041 22.8613 14.4928 22.8573 14.2761C22.8506 13.9759 22.759 13.8642 22.4736 13.7767C22.1263 13.6717 21.7696 13.7188 21.5152 13.7053Z" fill="#FC9B08"/>
</g>
<defs>
<clipPath id="clip0_802_3237">
<rect width="24" height="13.1489" fill="white" transform="translate(0 5)"/>
</clipPath>
</defs>
</svg>
